<svg id="Calque_1" xmlns="http://www.w3.org/2000/svg" viewBox="0 0 767.25 7337.6"><defs><style>
      .cls-1 {
        fill: #e5df00;
      }
      .cls-2 {
        fill: #e63c21;
      }
      .cls-3 {
        fill: #989898;
      }
    </style></defs><circle class="cls-2" cx="228.3" cy="6975.4" r="20.6"></circle><circle class="cls-1" cx="353" cy="7180.9" r="20.6"></circle><circle class="cls-3" cx="106" cy="6621.8" r="20.6"></circle><circle class="cls-3" cx="693.9" cy="5343.8" r="20.6"></circle><circle class="cls-3" cx="149.5" cy="3115.9" r="20.6"></circle><circle class="cls-3" cx="694.5" cy="1072.5" r="20.6"></circle><circle class="cls-1" cx="475.1" cy="7028.3" r="20.6"></circle><circle class="cls-1" cx="311.8" cy="6861.5" r="20.6"></circle><circle class="cls-1" cx="414.8" cy="6676" r="20.6"></circle><circle class="cls-1" cx="238.1" cy="6506.6" r="20.6"></circle><circle class="cls-1" cx="335.3" cy="6240.6" r="20.6"></circle><circle class="cls-1" cx="604.8" cy="5944.2" r="20.6"></circle><circle class="cls-1" cx="281.3" cy="5724.8" r="20.6"></circle><circle class="cls-1" cx="482.4" cy="5444.6" r="20.6"></circle><circle class="cls-1" cx="293.5" cy="5264.3" r="20.6"></circle><circle class="cls-1" cx="523.6" cy="5036.1" r="20.6" transform="translate(-4527.14 5391.82) rotate(-88.09)"></circle><circle class="cls-1" cx="301.9" cy="4826" r="20.6"></circle><circle class="cls-1" cx="502.2" cy="4410.1" r="20.6" transform="translate(-3922.17 4765.26) rotate(-88.09)"></circle><circle class="cls-1" cx="170.1" cy="4134.6" r="20.6"></circle><circle class="cls-1" cx="301.4" cy="3816.3" r="20.6"></circle><circle class="cls-1" cx="522.8" cy="3473" r="20.6" transform="translate(-2965.67 3879.94) rotate(-88.09)"></circle><circle class="cls-1" cx="281.3" cy="3259.3" r="20.6"></circle><circle class="cls-1" cx="564" cy="3003.2" r="20.6"></circle><circle class="cls-1" cx="303.9" cy="2734.1" r="20.6"></circle><circle class="cls-1" cx="624.4" cy="2291.6" r="20.6"></circle><circle class="cls-1" cx="502.2" cy="2583" r="20.6" transform="translate(-2096.08 2998.96) rotate(-88.09)"></circle><circle class="cls-1" cx="502.2" cy="1935.9" r="20.6" transform="translate(-702.61 339.55) rotate(-22.5)"></circle><circle class="cls-1" cx="240.3" cy="1740.5" r="20.6" transform="translate(-170.34 32.15) rotate(-5.65)"></circle><circle class="cls-1" cx="183.8" cy="1406.2" r="20.6"></circle><circle class="cls-1" cx="561.7" cy="1175.8" r="20.6"></circle><circle class="cls-1" cx="308.2" cy="968" r="20.6"></circle><circle class="cls-1" cx="619.9" cy="693.4" r="20.6"></circle><circle class="cls-1" cx="364.9" cy="521.9" r="20.6"></circle><circle class="cls-1" cx="452.5" cy="274.8" r="20.6"></circle><circle class="cls-1" cx="653.5" cy="4805.4" r="20.6"></circle><circle class="cls-2" cx="584.2" cy="6453.5" r="20.6"></circle><circle class="cls-2" cx="204.2" cy="5849" r="20.6"></circle><circle class="cls-2" cx="588.1" cy="5485.8" r="20.6"></circle><circle class="cls-2" cx="184" cy="4975.6" r="20.6"></circle><circle class="cls-2" cx="591.7" cy="4505.5" r="20.6"></circle><circle class="cls-2" cx="612.3" cy="4082" r="20.6"></circle><circle class="cls-2" cx="548.1" cy="3643.7" r="20.6"></circle><circle class="cls-2" cx="409.1" cy="3218.1" r="20.6"></circle><circle class="cls-2" cx="604.5" cy="2647.4" r="20.6"></circle><circle class="cls-2" cx="283.3" cy="2103.7" r="20.6"></circle><circle class="cls-2" cx="632.7" cy="1603.5" r="20.6"></circle><circle class="cls-2" cx="383.6" cy="1333.5" r="20.6"></circle><circle class="cls-2" cx="452.5" cy="958.1" r="20.6"></circle><circle class="cls-2" cx="536" cy="418.8" r="20.6"></circle><circle class="cls-2" cx="308.2" cy="85.7" r="20.6"></circle></svg>