<svg id="Calque_1" xmlns="http://www.w3.org/2000/svg" viewBox="0 0 767.25 7337.6"><defs><style>
      .cls-1 {
        fill: #e5df00;
      }
      .cls-2 {
        fill: #e63c21;
      }
      .cls-3 {
        fill: #989898;
      }
    </style></defs><circle class="cls-2" cx="560.61" cy="6892.5" r="20.6"></circle><circle class="cls-2" cx="229.41" cy="6569" r="20.6"></circle><circle class="cls-1" cx="250.01" cy="7115.68" r="20.6"></circle><circle class="cls-1" cx="401.89" cy="6842.34" r="20.6"></circle><circle class="cls-1" cx="108.32" cy="6644" r="20.6"></circle><circle class="cls-3" cx="108.32" cy="6218.7" r="20.6"></circle><circle class="cls-3" cx="294.31" cy="4447.43" r="20.6"></circle><circle class="cls-3" cx="559.64" cy="2546.5" r="20.6"></circle><circle class="cls-3" cx="125.32" cy="618.8" r="20.6"></circle><circle class="cls-1" cx="208.81" cy="5903.98" r="20.6"></circle><circle class="cls-1" cx="510.57" cy="6375.6" r="20.6"></circle><circle class="cls-1" cx="581.21" cy="6042.55" r="20.6"></circle><circle class="cls-1" cx="200.55" cy="5402.99" r="20.6"></circle><circle class="cls-1" cx="479.29" cy="5604.83" r="20.6"></circle><circle class="cls-1" cx="540.51" cy="4993.31" r="20.6"></circle><circle class="cls-1" cx="241.75" cy="4755.5" r="20.6"></circle><circle class="cls-1" cx="189.17" cy="3909.56" r="20.6"></circle><circle class="cls-1" cx="454.34" cy="3438.55" r="20.6"></circle><circle class="cls-1" cx="479.29" cy="2908.97" r="20.6"></circle><circle class="cls-1" cx="253.11" cy="2310.82" r="20.6"></circle><circle class="cls-1" cx="337.05" cy="1945.41" r="20.6"></circle><circle class="cls-1" cx="294.31" cy="1445.81" r="20.6"></circle><circle class="cls-1" cx="598.21" cy="1267.65" r="20.6"></circle><circle class="cls-1" cx="216.53" cy="819.15" r="20.6"></circle><circle class="cls-1" cx="351.81" cy="432.31" r="20.6"></circle><circle class="cls-1" cx="598.21" cy="952.52" r="20.6"></circle><circle class="cls-1" cx="506.3" cy="213.1" r="20.6"></circle><circle class="cls-1" cx="600.84" cy="4377.19" r="20.6"></circle><circle class="cls-2" cx="351.21" cy="6218.7" r="20.6"></circle><circle class="cls-2" cx="581.71" cy="5709.5" r="20.6"></circle><circle class="cls-2" cx="301.31" cy="5293.6" r="20.6"></circle><circle class="cls-2" cx="342.51" cy="4679.9" r="20.6"></circle><circle class="cls-2" cx="436.61" cy="4198.2" r="20.6"></circle><circle class="cls-2" cx="301.31" cy="3801.8" r="20.6"></circle><circle class="cls-2" cx="358.41" cy="3231.3" r="20.6"></circle><circle class="cls-2" cx="154.51" cy="2455.8" r="20.6"></circle><circle class="cls-2" cx="445.31" cy="2026.2" r="20.6"></circle><circle class="cls-2" cx="195.61" cy="1580" r="20.6"></circle><circle class="cls-2" cx="390.01" cy="1060.7" r="20.6" transform="translate(-719.47 1275.77) rotate(-80.78)"></circle><circle class="cls-2" cx="577.61" cy="577.6" r="20.6"></circle><circle class="cls-2" cx="310.61" cy="146.4" r="20.6"></circle></svg>